<svg width="89" height="89" viewBox="0 0 89 89" fill="none" xmlns="http://www.w3.org/2000/svg">
<rect width="89" height="89" rx="44.5" fill="#FFD04E"/>
<path fill-rule="evenodd" clip-rule="evenodd" d="M62.5136 35.3009C58.6247 35.3009 54.7039 35.1419 50.8272 34.8049C50.871 36.7962 50.9342 38.7879 50.9978 40.7895L50.9978 40.7913C51.0658 42.9322 51.1342 45.0845 51.1795 47.2599L51.1795 47.2604C51.2687 51.4548 51.358 55.6491 51.5365 59.8435C51.5365 60.4682 51.9827 61.0037 52.6074 61.093C54.7493 61.4499 56.802 61.5392 58.7654 61.5392C61.175 61.5392 63.7631 61.2714 66.5297 60.736C68.3147 60.379 69.8318 59.3973 70.7243 57.8801C71.6167 56.4522 71.9737 54.8458 71.6167 53.1501V52.9716C71.1705 50.9189 70.1888 49.5803 69.0286 48.0631C68.0469 46.8136 66.976 45.3857 66.0835 43.2438C65.0962 40.8578 64.564 38.1683 64.6267 35.2453C63.8853 35.3009 63.1995 35.3009 62.5136 35.3009ZM43.0581 33.8729C45.1303 34.194 47.2311 34.4578 49.3481 34.6674C48.9887 34.9488 48.5063 35.2507 47.8774 35.4794C46.3568 36.0708 44.9162 35.7825 44.1611 35.523C43.2132 35.0387 42.1406 34.7654 41.0054 34.7654C39.6117 34.7654 38.3121 35.1775 37.2221 35.8861C35.2835 35.7189 31.3228 35.2997 28.2234 34.8908C27.9711 34.8422 27.7141 34.8073 27.453 34.7868C26.4931 34.6541 25.6519 34.5249 25.0304 34.4084L27.2649 30.5188C32.4746 31.9742 37.7663 33.0922 43.0581 33.8729ZM47.931 41.0204C47.7766 39.4957 47.1279 38.1146 46.148 37.0404C46.9018 37.0284 47.6431 36.8948 48.3236 36.6396C48.8591 36.4611 49.3053 36.1934 49.6623 35.9257C49.6985 37.4813 49.7346 39.0223 49.7708 40.5605L47.931 41.0204ZM47.9499 42.2116L49.7988 41.7494C49.8425 43.6085 49.8863 45.4681 49.93 47.3491C49.9753 49.5242 50.0437 51.6763 50.1116 53.8171L50.1117 53.8179C50.1761 55.8477 50.2402 57.8674 50.2841 59.8869C48.4077 61.0471 43.9526 63.7703 38.9529 63.7703H38.8636C36.2755 63.7703 30.1175 63.7703 26.7262 59.0402C23.8227 55.067 24.7134 50.1779 25.1417 48.4615C25.705 48.6091 26.2958 48.6878 26.9047 48.6878C28.854 48.6878 30.6191 47.8818 31.8842 46.5857C31.6392 47.1715 31.675 47.866 31.9916 48.42C32.3486 48.9555 32.9733 49.2232 33.6873 49.2232C34.312 49.2232 35.026 49.0447 35.5614 48.5985L34.9367 47.6168C34.0443 48.1523 33.1518 48.063 32.9733 47.7953C32.8841 47.6168 32.7948 47.2598 32.9733 46.9921C33.1518 46.7243 33.5088 46.5459 33.8658 46.5459L33.955 45.3857C33.4677 45.3315 32.9804 45.4745 32.5927 45.7348C33.2812 44.7609 33.7261 43.6032 33.838 42.3513H34.0721C34.3891 45.8975 37.3784 48.6878 41.0054 48.6878C44.68 48.6878 47.7 45.8239 47.9499 42.2116ZM41.8087 64.6751C45.629 64.0068 48.8603 62.1843 50.5487 61.1154C50.8958 61.7764 51.5568 62.2219 52.3397 62.3424C53.4949 62.4999 54.6193 62.6266 55.731 62.7041V70.196C53.4998 71.4454 51.0902 72.0701 48.5913 72.0701C46.2709 71.9809 43.9506 71.3562 41.8087 70.196V64.6751ZM40.6485 64.8388C40.0923 64.8981 39.5262 64.9305 38.9529 64.9305H38.7744C36.2391 64.9305 30.8906 64.9304 27.0993 61.3091C20.6628 59.9741 17.44 58.1193 17.0876 55.9167C17.0044 55.0014 17.3866 54.2413 17.8727 53.2747C17.908 53.2046 17.9438 53.1333 17.9801 53.0608C18.6048 51.9899 19.3187 50.7404 19.8542 48.5985C20.1173 47.634 20.3803 46.3249 20.5587 44.5866C20.1636 43.7136 19.9435 42.7453 19.9435 41.7266C19.9435 38.8862 21.6547 36.437 24.1 35.3559C24.0155 35.3371 23.9387 35.3187 23.8702 35.3009L23.1563 35.1224L26.0304 30.1724C22.0871 29.0532 18.0702 27.6986 14.0532 26.1086L14.4995 25.0376C18.6048 26.644 22.6208 27.9827 26.6369 29.1429C27.8863 26.3763 30.6529 21.6463 35.8292 18.7012C40.2022 16.113 46.0032 15.1313 51.4472 16.0238C57.1589 16.9163 61.7104 19.7721 64.0308 23.7882C66.2114 27.5388 66.0903 31.7157 65.5838 34.5691L65.8158 34.587C65.7265 37.6213 66.1728 40.3879 67.1545 42.7976C67.938 44.7128 68.9762 46.0336 69.9379 47.2569L70.0103 47.3491C71.2598 48.9555 72.3307 50.3835 72.8662 52.7931V52.9716C73.2232 54.8458 72.8662 56.8092 71.7952 58.5048C70.635 60.2897 68.8501 61.4499 66.7975 61.8962C63.9416 62.4316 61.3535 62.6994 58.8546 62.6994C58.4976 62.7886 58.3191 62.7886 58.0514 62.7886H58.0514C57.6649 62.7886 57.2784 62.781 56.8912 62.7666V65.3419L68.1362 66.7153L67.9577 67.8755L56.8912 66.5239V70.9099L56.6234 71.0884C54.2138 72.5164 51.5364 73.2303 48.7698 73.2303H48.5913C45.914 73.2303 43.3258 72.4271 40.9162 71.0884L40.6485 70.9099V66.8046H35.9184C33.955 66.8046 31.9916 67.7863 30.8314 69.3928L29.8497 68.768C31.2776 66.8046 33.5088 65.6444 35.9184 65.6444H40.6485V64.8388ZM25.7887 59.8149L25.7445 59.7542C22.5458 55.3073 23.5756 49.8373 24.0046 48.0543C23.0486 47.6142 22.2087 46.9638 21.5445 46.1626C21.388 47.2875 21.2012 48.2084 21.0144 48.9555C20.413 51.1034 19.6462 52.5069 19.1121 53.4845L19.051 53.5963C18.5155 54.4888 18.1585 55.1135 18.2478 55.7382C18.4114 56.8014 19.849 58.3892 25.7887 59.8149ZM31.3263 36.3544C32.7468 37.5258 33.6969 39.2484 33.8454 41.1911H34.0647C34.1933 39.5093 34.9225 37.9926 36.0376 36.8555C34.8008 36.7329 33.0887 36.554 31.3263 36.3544ZM27.7078 29.4107C32.7948 30.8386 38.0603 31.9095 43.2366 32.7128C50.1977 33.7837 57.4266 34.2299 64.4771 34.1407C64.9233 31.4633 64.9233 27.715 63.0491 24.4129C60.9072 20.7538 56.6234 18.1657 51.3579 17.2732C46.0924 16.3808 40.6484 17.2732 36.3647 19.6829C31.5454 22.3602 28.9573 26.7333 27.7078 29.4107ZM26.9047 36.0149C23.6918 36.0149 21.1037 38.603 21.1037 41.8158C21.1037 42.3245 21.1686 42.8174 21.2905 43.2869C21.5106 41.8138 22.6619 40.6468 24.1754 40.4306C25.6595 40.237 27.0146 41.0759 27.5954 42.3019H27.2082C26.5629 42.3665 26.1757 42.9472 26.2403 43.528C26.3048 44.1732 26.8856 44.5604 27.4663 44.4959C27.5954 44.4314 27.7244 44.4314 27.8535 44.4314C27.5954 45.7865 26.4984 46.8834 25.0142 47.077C24.835 47.0956 24.6581 47.1005 24.4846 47.0927C25.2205 47.4293 26.04 47.6168 26.9047 47.6168C30.1175 47.6168 32.7056 45.0287 32.7056 41.8158C32.7056 38.603 30.0283 36.0149 26.9047 36.0149ZM41.0054 36.0149C37.7926 36.0149 35.2045 38.603 35.2045 41.8158C35.2045 42.3515 35.2764 42.8698 35.4112 43.3616C35.6057 41.8534 36.7864 40.6504 38.3468 40.4306C39.8517 40.237 41.2258 41.0759 41.8147 42.3019H41.4221C40.7678 42.3664 40.3752 42.9472 40.4406 43.528C40.5061 44.1732 41.0949 44.5604 41.6838 44.4959C41.8147 44.4314 41.9455 44.4314 42.0764 44.4314C41.8147 45.7865 40.7023 46.8834 39.1974 47.077C38.9861 47.0986 38.7781 47.1017 38.5748 47.0878C39.3134 47.4275 40.1366 47.6168 41.0054 47.6168C44.2183 47.6168 46.8064 45.0287 46.8064 41.8158C46.8064 38.603 44.2183 36.0149 41.0054 36.0149ZM29.0465 56.0951C30.296 58.0585 32.4379 59.2187 34.669 59.2187C34.7713 59.2187 34.8605 59.2057 34.9368 59.1946C35.0601 59.1766 35.1493 59.1636 35.2045 59.2187C37.8819 58.951 39.4883 57.2553 40.2023 56.1844L39.2206 55.4704C38.5958 56.2736 37.2572 57.7908 35.1153 57.9693C33.1519 58.237 31.1884 57.2553 30.0283 55.4704L29.0465 56.0951ZM42.2549 53.6855C43.0436 53.6855 43.6829 53.0462 43.6829 52.2576C43.6829 51.469 43.0436 50.8297 42.2549 50.8297C41.4663 50.8297 40.827 51.469 40.827 52.2576C40.827 53.0462 41.4663 53.6855 42.2549 53.6855Z" fill="#1D1D1D"/>
<path d="M50.8272 34.8049L50.8472 34.5743L50.5902 34.552L50.5959 34.81L50.8272 34.8049ZM50.9978 40.7895L50.7665 40.7969L50.7665 40.7972L50.9978 40.7895ZM50.9978 40.7913L51.2291 40.7839L51.2291 40.7836L50.9978 40.7913ZM51.1795 47.2599L50.9481 47.2647L50.9481 47.2648L51.1795 47.2599ZM51.1795 47.2604L51.4108 47.2555L51.4108 47.2555L51.1795 47.2604ZM51.5365 59.8435L51.7681 59.8435L51.7677 59.8337L51.5365 59.8435ZM52.6074 61.093L52.6455 60.8646L52.6401 60.8639L52.6074 61.093ZM66.5297 60.736L66.5737 60.9632L66.5751 60.9629L66.5297 60.736ZM70.7243 57.8801L70.528 57.7574L70.5248 57.7628L70.7243 57.8801ZM71.6167 53.1501H71.3853V53.1742L71.3903 53.1978L71.6167 53.1501ZM71.6167 52.9716H71.8482V52.9467L71.8429 52.9224L71.6167 52.9716ZM69.0286 48.0631L69.2125 47.9225L69.2106 47.9201L69.0286 48.0631ZM66.0835 43.2438L65.8697 43.3323L65.8699 43.3328L66.0835 43.2438ZM64.6267 35.2453L64.8581 35.2503L64.8636 34.9955L64.6095 35.0146L64.6267 35.2453ZM49.3481 34.6674L49.4908 34.8496L49.945 34.494L49.3709 34.4371L49.3481 34.6674ZM43.0581 33.8729L43.0935 33.6443L43.0919 33.644L43.0581 33.8729ZM47.8774 35.4794L47.7983 35.2619L47.7935 35.2638L47.8774 35.4794ZM44.1611 35.523L44.0558 35.729L44.0704 35.7365L44.0858 35.7418L44.1611 35.523ZM37.2221 35.8861L37.2022 36.1166L37.2815 36.1234L37.3482 36.0801L37.2221 35.8861ZM28.2234 34.8908L28.1796 35.1184L28.1931 35.1202L28.2234 34.8908ZM27.453 34.7868L27.4212 35.0165L27.4349 35.0175L27.453 34.7868ZM25.0304 34.4084L24.8298 34.2931L24.6674 34.5758L24.9878 34.6358L25.0304 34.4084ZM27.2649 30.5188L27.3271 30.296L27.1538 30.2475L27.0642 30.4036L27.2649 30.5188ZM46.148 37.0404L46.1444 36.809L45.6312 36.8171L45.9771 37.1963L46.148 37.0404ZM47.931 41.0204L47.7008 41.0438L47.7277 41.3098L47.9872 41.2449L47.931 41.0204ZM48.3236 36.6396L48.2504 36.42L48.2424 36.423L48.3236 36.6396ZM49.6623 35.9257L49.8936 35.9203L49.8832 35.4707L49.5235 35.7405L49.6623 35.9257ZM49.7708 40.5605L49.8269 40.785L50.0065 40.7401L50.0022 40.5551L49.7708 40.5605ZM49.7988 41.7494L50.0301 41.7439L50.0233 41.4547L49.7427 41.5249L49.7988 41.7494ZM47.9499 42.2116L47.8938 41.9871L47.7306 42.0278L47.719 42.1956L47.9499 42.2116ZM49.93 47.3491L50.1614 47.3443L50.1614 47.3437L49.93 47.3491ZM50.1116 53.8171L50.3429 53.8102L50.3429 53.8097L50.1116 53.8171ZM50.1117 53.8179L49.8804 53.8248L49.8804 53.8252L50.1117 53.8179ZM50.2841 59.8869L50.4058 60.0837L50.5183 60.0141L50.5155 59.8819L50.2841 59.8869ZM26.7262 59.0402L26.9143 58.9054L26.913 58.9037L26.7262 59.0402ZM25.1417 48.4615L25.2004 48.2377L24.9739 48.1783L24.9172 48.4055L25.1417 48.4615ZM31.8842 46.5857L32.0976 46.675L31.7186 46.4241L31.8842 46.5857ZM31.9916 48.42L31.7907 48.5348L31.7946 48.5417L31.7991 48.5484L31.9916 48.42ZM35.5614 48.5985L35.7096 48.7763L35.8659 48.646L35.7567 48.4743L35.5614 48.5985ZM34.9367 47.6168L35.1319 47.4926L35.0109 47.3024L34.8177 47.4184L34.9367 47.6168ZM32.9733 47.7953L32.7663 47.8988L32.7728 47.9117L32.7808 47.9237L32.9733 47.7953ZM33.8658 46.5459V46.7773H34.0801L34.0965 46.5636L33.8658 46.5459ZM33.955 45.3857L34.1857 45.4034L34.2029 45.1804L33.9806 45.1557L33.955 45.3857ZM32.5927 45.7348L32.4037 45.6013L32.7217 45.9269L32.5927 45.7348ZM33.838 42.3513V42.1199H33.6264L33.6075 42.3307L33.838 42.3513ZM34.0721 42.3513L34.3026 42.3307L34.2837 42.1199H34.0721V42.3513ZM50.5487 61.1154L50.7535 61.0078L50.6369 60.7857L50.4249 60.9199L50.5487 61.1154ZM41.8087 64.6751L41.7688 64.4471L41.5773 64.4806V64.6751H41.8087ZM52.3397 62.3424L52.3045 62.5711L52.3084 62.5717L52.3397 62.3424ZM55.731 62.7041H55.9624V62.4883L55.7471 62.4733L55.731 62.7041ZM55.731 70.196L55.844 70.3979L55.9624 70.3316V70.196H55.731ZM48.5913 72.0701L48.5824 72.3015H48.5913V72.0701ZM41.8087 70.196H41.5773V70.3338L41.6984 70.3994L41.8087 70.196ZM40.6485 64.8388H40.8799V64.5814L40.6239 64.6087L40.6485 64.8388ZM27.0993 61.3091L27.2591 61.1418L27.2112 61.096L27.1463 61.0825L27.0993 61.3091ZM17.0876 55.9167L16.8571 55.9377L16.8579 55.9455L16.8591 55.9533L17.0876 55.9167ZM17.8727 53.2747L18.0794 53.3787L18.0794 53.3787L17.8727 53.2747ZM17.9801 53.0608L17.7802 52.9442L17.7764 52.9507L17.7731 52.9573L17.9801 53.0608ZM19.8542 48.5985L19.6309 48.5376L19.6297 48.5424L19.8542 48.5985ZM20.5587 44.5866L20.7889 44.6102L20.7953 44.5481L20.7695 44.4912L20.5587 44.5866ZM24.1 35.3559L24.1936 35.5675L24.8376 35.2828L24.1503 35.13L24.1 35.3559ZM23.8702 35.3009L23.9286 35.0769L23.9263 35.0764L23.8702 35.3009ZM23.1563 35.1224L22.9561 35.0062L22.8016 35.2722L23.1001 35.3469L23.1563 35.1224ZM26.0304 30.1724L26.2305 30.2886L26.3801 30.0311L26.0936 29.9498L26.0304 30.1724ZM14.0532 26.1086L13.8396 26.0196L13.749 26.237L13.9681 26.3237L14.0532 26.1086ZM14.4995 25.0376L14.5838 24.8221L14.3729 24.7396L14.2858 24.9486L14.4995 25.0376ZM26.6369 29.1429L26.5726 29.3652L26.7652 29.4209L26.8478 29.2382L26.6369 29.1429ZM35.8292 18.7012L35.9436 18.9023L35.947 18.9003L35.8292 18.7012ZM51.4472 16.0238L51.4097 16.2522L51.4115 16.2524L51.4472 16.0238ZM64.0308 23.7882L63.8305 23.9039L63.8308 23.9045L64.0308 23.7882ZM65.5838 34.5691L65.356 34.5287L65.3113 34.7803L65.5661 34.7999L65.5838 34.5691ZM65.8158 34.587L66.0471 34.5938L66.0536 34.3732L65.8335 34.3563L65.8158 34.587ZM67.1545 42.7976L66.9402 42.8849L66.9403 42.8852L67.1545 42.7976ZM69.9379 47.2569L70.1198 47.1139L70.1198 47.1139L69.9379 47.2569ZM70.0103 47.3491L70.193 47.207L70.1923 47.2061L70.0103 47.3491ZM72.8662 52.7931H73.0976V52.7677L73.0921 52.7429L72.8662 52.7931ZM72.8662 52.9716H72.6348V52.9934L72.6389 53.0149L72.8662 52.9716ZM71.7952 58.5048L71.9893 58.631L71.9909 58.6284L71.7952 58.5048ZM66.7975 61.8962L66.8401 62.1237L66.8466 62.1223L66.7975 61.8962ZM58.8546 62.6994V62.468H58.8261L58.7985 62.4749L58.8546 62.6994ZM56.8912 62.7666L56.8998 62.5354L56.6598 62.5265V62.7666H56.8912ZM56.8912 65.3419H56.6598V65.5468L56.8631 65.5716L56.8912 65.3419ZM68.1362 66.7153L68.3649 66.7505L68.4012 66.5146L68.1642 66.4856L68.1362 66.7153ZM67.9577 67.8755L67.9296 68.1052L68.1523 68.1324L68.1864 67.9107L67.9577 67.8755ZM56.8912 66.5239L56.9192 66.2942L56.6598 66.2625V66.5239H56.8912ZM56.8912 70.9099L57.0195 71.1025L57.1226 71.0338V70.9099H56.8912ZM56.6234 71.0884L56.7416 71.2878L56.7518 71.281L56.6234 71.0884ZM40.9162 71.0884L40.7878 71.281L40.7956 71.2862L40.8038 71.2907L40.9162 71.0884ZM40.6485 70.9099H40.4171V71.0338L40.5201 71.1025L40.6485 70.9099ZM40.6485 66.8046H40.8799V66.5732H40.6485V66.8046ZM30.8314 69.3928L30.7072 69.588L30.8913 69.7051L31.019 69.5282L30.8314 69.3928ZM29.8497 68.768L29.6626 68.6319L29.5177 68.8311L29.7255 68.9633L29.8497 68.768ZM40.6485 65.6444V65.8758H40.8799V65.6444H40.6485ZM25.7445 59.7542L25.5566 59.8893L25.5575 59.8905L25.7445 59.7542ZM25.7887 59.8149L25.7347 60.0399L26.3461 60.1866L25.9757 59.6785L25.7887 59.8149ZM24.0046 48.0543L24.2296 48.1084L24.274 47.9235L24.1013 47.8441L24.0046 48.0543ZM21.5445 46.1626L21.7226 46.0149L21.3876 45.6109L21.3153 46.1308L21.5445 46.1626ZM21.0144 48.9555L21.2373 49.018L21.2389 49.0117L21.0144 48.9555ZM19.1121 53.4845L18.909 53.3736L18.909 53.3736L19.1121 53.4845ZM19.051 53.5963L19.2496 53.7155L19.2541 53.7072L19.051 53.5963ZM18.2478 55.7382L18.0187 55.7709L18.0191 55.7734L18.2478 55.7382ZM33.8454 41.1911L33.6147 41.2088L33.6311 41.4225H33.8454V41.1911ZM31.3263 36.3544L31.3523 36.1245L30.5772 36.0367L31.1791 36.533L31.3263 36.3544ZM34.0647 41.1911V41.4225H34.2791L34.2954 41.2088L34.0647 41.1911ZM36.0376 36.8555L36.2029 37.0175L36.5409 36.6729L36.0605 36.6252L36.0376 36.8555ZM43.2366 32.7128L43.2011 32.9414L43.2014 32.9415L43.2366 32.7128ZM27.7078 29.4107L27.4981 29.3128L27.3829 29.5598L27.6453 29.6335L27.7078 29.4107ZM64.4771 34.1407L64.48 34.3721L64.6735 34.3696L64.7053 34.1787L64.4771 34.1407ZM63.0491 24.4129L63.2504 24.2987L63.2488 24.296L63.0491 24.4129ZM51.3579 17.2732L51.3193 17.5014L51.3193 17.5014L51.3579 17.2732ZM36.3647 19.6829L36.477 19.8852L36.4781 19.8846L36.3647 19.6829ZM21.2905 43.2869L21.0665 43.3451L21.5194 43.3211L21.2905 43.2869ZM24.1754 40.4306L24.1454 40.2011L24.1426 40.2015L24.1754 40.4306ZM27.5954 42.3019V42.5333H27.961L27.8045 42.2029L27.5954 42.3019ZM27.2082 42.3019V42.0705H27.1967L27.1852 42.0717L27.2082 42.3019ZM26.2403 43.528L26.4705 43.5049L26.4703 43.5024L26.2403 43.528ZM27.4663 44.4959L27.4919 44.7259L27.5329 44.7213L27.5698 44.7029L27.4663 44.4959ZM27.8535 44.4314L28.0808 44.4747L28.1331 44.2H27.8535V44.4314ZM25.0142 47.077L25.038 47.3073L25.0442 47.3065L25.0142 47.077ZM24.4846 47.0927L24.495 46.8615L24.3883 47.3031L24.4846 47.0927ZM35.4112 43.3616L35.188 43.4227L35.6407 43.3912L35.4112 43.3616ZM38.3468 40.4306L38.3173 40.2011L38.3145 40.2015L38.3468 40.4306ZM41.8147 42.3019V42.5333H42.1825L42.0233 42.2017L41.8147 42.3019ZM41.4221 42.3019V42.0705H41.4107L41.3994 42.0716L41.4221 42.3019ZM40.4406 43.528L40.6709 43.5046L40.6706 43.5021L40.4406 43.528ZM41.6838 44.4959L41.709 44.7259L41.7496 44.7215L41.7861 44.7034L41.6838 44.4959ZM42.0764 44.4314L42.3036 44.4752L42.3568 44.2H42.0764V44.4314ZM39.1974 47.077L39.2209 47.3073L39.227 47.3065L39.1974 47.077ZM38.5748 47.0878L38.5906 46.857L38.4781 47.2981L38.5748 47.0878ZM29.0465 56.0951L28.9223 55.8999L28.7271 56.0241L28.8513 56.2194L29.0465 56.0951ZM34.9368 59.1946L34.9034 58.9656L34.9034 58.9656L34.9368 59.1946ZM35.2045 59.2187L35.0409 59.3824L35.1184 59.4599L35.2275 59.449L35.2045 59.2187ZM40.2023 56.1844L40.3948 56.3127L40.518 56.1279L40.3384 55.9972L40.2023 56.1844ZM39.2206 55.4704L39.3567 55.2833L39.1755 55.1515L39.0379 55.3283L39.2206 55.4704ZM35.1153 57.9693L35.096 57.7384L35.084 57.74L35.1153 57.9693ZM30.0283 55.4704L30.2223 55.3443L30.0974 55.1521L29.904 55.2752L30.0283 55.4704ZM50.8072 35.0354C54.6909 35.373 58.6184 35.5323 62.5136 35.5323V35.0695C58.6309 35.0695 54.7168 34.9107 50.8472 34.5743L50.8072 35.0354ZM51.2291 40.7822C51.1655 38.7804 51.1023 36.7898 51.0586 34.7998L50.5959 34.81C50.6397 36.8026 50.703 38.7955 50.7665 40.7969L51.2291 40.7822ZM51.2291 40.7836L51.2291 40.7819L50.7665 40.7972L50.7666 40.7989L51.2291 40.7836ZM51.4108 47.255C51.3655 45.0783 51.2971 42.9247 51.2291 40.7839L50.7666 40.7986C50.8345 42.9398 50.9028 45.0908 50.9481 47.2647L51.4108 47.255ZM51.4108 47.2555L51.4108 47.2549L50.9481 47.2648L50.9481 47.2653L51.4108 47.2555ZM51.7677 59.8337C51.5893 55.6422 51.5001 51.4503 51.4108 47.2555L50.9481 47.2653C51.0374 51.4593 51.1267 55.6561 51.3053 59.8534L51.7677 59.8337ZM52.6401 60.8639C52.1334 60.7915 51.7679 60.3572 51.7679 59.8435H51.3051C51.3051 60.5793 51.832 61.2159 52.5747 61.322L52.6401 60.8639ZM58.7654 61.3078C56.8087 61.3078 54.77 61.2188 52.6454 60.8647L52.5694 61.3212C54.7286 61.6811 56.7952 61.7706 58.7654 61.7706V61.3078ZM66.4858 60.5088C63.7313 61.0419 61.158 61.3078 58.7654 61.3078V61.7706C61.192 61.7706 63.795 61.501 66.5737 60.9632L66.4858 60.5088ZM70.5248 57.7628C69.6702 59.2156 68.2137 60.1632 66.4844 60.5091L66.5751 60.9629C68.4156 60.5948 69.9934 59.5789 70.9237 57.9974L70.5248 57.7628ZM71.3903 53.1978C71.7337 54.8288 71.3923 56.3747 70.5281 57.7575L70.9205 58.0028C71.8412 56.5296 72.2138 54.8627 71.8432 53.1024L71.3903 53.1978ZM71.3853 52.9716V53.1501H71.8482V52.9716H71.3853ZM68.8448 48.2036C70.004 49.7195 70.9563 51.0227 71.3906 53.0208L71.8429 52.9224C71.3848 50.8152 70.3737 49.4411 69.2124 47.9225L68.8448 48.2036ZM65.8699 43.3328C66.7746 45.5041 67.8611 46.9517 68.8467 48.206L69.2106 47.9201C68.2328 46.6756 67.1774 45.2674 66.2971 43.1548L65.8699 43.3328ZM64.3954 35.2403C64.3319 38.1949 64.8699 40.9162 65.8697 43.3323L66.2973 43.1553C65.3224 40.7993 64.796 38.1417 64.8581 35.2503L64.3954 35.2403ZM62.5136 35.5323C63.1986 35.5323 63.8927 35.5324 64.644 35.4761L64.6095 35.0146C63.8779 35.0694 63.2004 35.0695 62.5136 35.0695V35.5323ZM49.3709 34.4371C47.2579 34.2279 45.1613 33.9646 43.0935 33.6443L43.0226 34.1016C45.0993 34.4234 47.2043 34.6877 49.3253 34.8977L49.3709 34.4371ZM47.9565 35.6969C48.6117 35.4587 49.1152 35.1436 49.4908 34.8496L49.2055 34.4852C48.8623 34.7539 48.401 35.0428 47.7983 35.262L47.9565 35.6969ZM44.0858 35.7418C44.8699 36.0113 46.371 36.3135 47.9613 35.6951L47.7935 35.2638C46.3427 35.828 44.9625 35.5537 44.2363 35.3041L44.0858 35.7418ZM41.0054 34.9968C42.103 34.9968 43.1397 35.261 44.0558 35.729L44.2663 35.3169C43.2868 34.8164 42.1781 34.534 41.0054 34.534V34.9968ZM37.3482 36.0801C38.4019 35.395 39.6579 34.9968 41.0054 34.9968V34.534C39.5654 34.534 38.2222 34.9599 37.096 35.692L37.3482 36.0801ZM28.1931 35.1202C31.2959 35.5296 35.2601 35.9491 37.2022 36.1166L37.242 35.6555C35.3069 35.4886 31.3496 35.0699 28.2537 34.6614L28.1931 35.1202ZM27.4349 35.0175C27.6873 35.0373 27.9358 35.0711 28.1796 35.118L28.2672 34.6636C28.0064 34.6133 27.7408 34.5773 27.4711 34.5561L27.4349 35.0175ZM24.9878 34.6358C25.6147 34.7534 26.4603 34.8832 27.4213 35.016L27.4847 34.5576C26.526 34.4251 25.6891 34.2965 25.0731 34.181L24.9878 34.6358ZM27.0642 30.4036L24.8298 34.2931L25.2311 34.5237L27.4655 30.6341L27.0642 30.4036ZM43.0919 33.644C37.8096 32.8647 32.5274 31.7486 27.3271 30.296L27.2026 30.7417C32.4218 32.1997 37.7231 33.3197 43.0243 34.1019L43.0919 33.644ZM45.9771 37.1963C46.9247 38.2352 47.5516 39.5703 47.7008 41.0438L48.1613 40.9971C48.0017 39.4212 47.3311 37.994 46.319 36.8844L45.9771 37.1963ZM48.2424 36.423C47.5885 36.6682 46.8736 36.7974 46.1444 36.809L46.1517 37.2717C46.9301 37.2594 47.6978 37.1215 48.4049 36.8563L48.2424 36.423ZM49.5235 35.7405C49.181 35.9974 48.7567 36.2513 48.2504 36.4201L48.3968 36.8592C48.9615 36.6709 49.4296 36.3894 49.8011 36.1108L49.5235 35.7405ZM50.0022 40.5551C49.966 39.0169 49.9298 37.4759 49.8936 35.9203L49.431 35.931C49.4671 37.4867 49.5033 39.0278 49.5395 40.566L50.0022 40.5551ZM47.9872 41.2449L49.8269 40.785L49.7147 40.336L47.8749 40.7959L47.9872 41.2449ZM49.7427 41.5249L47.8938 41.9871L48.006 42.4361L49.8549 41.9739L49.7427 41.5249ZM50.1614 47.3437C50.1176 45.4627 50.0739 43.6031 50.0301 41.7439L49.5675 41.7548C49.6112 43.614 49.6549 45.4735 49.6987 47.3545L50.1614 47.3437ZM50.3429 53.8097C50.275 51.6688 50.2067 49.5179 50.1614 47.3443L49.6987 47.3539C49.744 49.5305 49.8124 51.6839 49.8804 53.8244L50.3429 53.8097ZM50.343 53.811L50.3429 53.8102L49.8803 53.824L49.8804 53.8248L50.343 53.811ZM50.5155 59.8819C50.4716 57.861 50.4074 55.8402 50.343 53.8105L49.8804 53.8252C49.9448 55.8553 50.0089 57.8738 50.0528 59.8919L50.5155 59.8819ZM38.9529 64.0017C44.0258 64.0017 48.5322 61.2422 50.4058 60.0837L50.1624 59.6901C48.2833 60.852 43.8795 63.5388 38.9529 63.5388V64.0017ZM38.8636 64.0017H38.9529V63.5388H38.8636V64.0017ZM26.5381 59.1751C28.2751 61.5977 30.7175 62.8031 33.0382 63.403C35.3565 64.0024 37.5696 64.0017 38.8636 64.0017V63.5388C37.5695 63.5388 35.4095 63.5381 33.154 62.955C30.9009 62.3724 28.5687 61.2128 26.9143 58.9054L26.5381 59.1751ZM24.9172 48.4055C24.4864 50.1318 23.5703 55.1139 26.5394 59.1768L26.913 58.9037C24.075 55.0201 24.9404 50.224 25.3662 48.5176L24.9172 48.4055ZM26.9047 48.4564C26.3158 48.4564 25.7447 48.3803 25.2004 48.2377L25.0831 48.6854C25.6653 48.838 26.2759 48.9192 26.9047 48.9192V48.4564ZM31.7186 46.4241C30.4951 47.6776 28.7889 48.4564 26.9047 48.4564V48.9192C28.9191 48.9192 30.7431 48.0861 32.0498 46.7474L31.7186 46.4241ZM32.1925 48.3052C31.9124 47.815 31.8797 47.1961 32.0976 46.675L31.6707 46.4965C31.3986 47.147 31.4376 47.9169 31.7907 48.5348L32.1925 48.3052ZM33.6873 48.9918C33.0289 48.9918 32.4874 48.7465 32.1842 48.2917L31.7991 48.5484C32.2098 49.1645 32.9177 49.4546 33.6873 49.4546V48.9918ZM35.4133 48.4207C34.9304 48.8232 34.2741 48.9918 33.6873 48.9918V49.4546C34.3499 49.4546 35.1216 49.2663 35.7096 48.7763L35.4133 48.4207ZM34.7415 47.741L35.3662 48.7227L35.7567 48.4743L35.1319 47.4926L34.7415 47.741ZM32.7808 47.9237C32.8681 48.0547 33.0168 48.1323 33.162 48.1769C33.3141 48.2235 33.4965 48.2447 33.6945 48.2385C34.0916 48.2261 34.5762 48.103 35.0558 47.8152L34.8177 47.4184C34.4047 47.6661 33.9969 47.7661 33.6801 47.776C33.5211 47.7809 33.3911 47.7631 33.2978 47.7344C33.2513 47.7202 33.2176 47.7044 33.195 47.6902C33.1719 47.6758 33.1655 47.6664 33.1659 47.6669L32.7808 47.9237ZM32.7808 46.8637C32.6543 47.0535 32.6284 47.2661 32.6422 47.4449C32.6559 47.6231 32.7099 47.7859 32.7663 47.8988L33.1803 47.6918C33.1475 47.6262 33.1122 47.5212 33.1036 47.4094C33.0951 47.2982 33.1139 47.1984 33.1659 47.1204L32.7808 46.8637ZM33.8658 46.3144C33.4414 46.3144 33.0074 46.5237 32.7808 46.8637L33.1659 47.1204C33.2962 46.925 33.5762 46.7773 33.8658 46.7773V46.3144ZM33.7243 45.3679L33.635 46.5281L34.0965 46.5636L34.1857 45.4034L33.7243 45.3679ZM32.7217 45.9269C33.0695 45.6934 33.5028 45.5682 33.9295 45.6156L33.9806 45.1557C33.4326 45.0948 32.8912 45.2556 32.4637 45.5427L32.7217 45.9269ZM33.6075 42.3307C33.4994 43.5406 33.0694 44.6596 32.4037 45.6013L32.7816 45.8684C33.4929 44.8622 33.9528 43.6658 34.0685 42.3719L33.6075 42.3307ZM34.0721 42.1199H33.838V42.5827H34.0721V42.1199ZM41.0054 48.4564C37.4994 48.4564 34.6091 45.7587 34.3026 42.3307L33.8416 42.3719C34.1692 46.0362 37.2574 48.9192 41.0054 48.9192V48.4564ZM47.719 42.1956C47.4774 45.6875 44.5575 48.4564 41.0054 48.4564V48.9192C44.8025 48.9192 47.9225 45.9602 48.1807 42.2275L47.719 42.1956ZM50.4249 60.9199C48.7459 61.9829 45.5449 63.7866 41.7688 64.4471L41.8485 64.903C45.7131 64.227 48.9747 62.3858 50.6725 61.3109L50.4249 60.9199ZM52.3749 62.1137C51.6571 62.0033 51.0632 61.5974 50.7535 61.0078L50.3438 61.223C50.7284 61.9554 51.4564 62.4406 52.3045 62.5711L52.3749 62.1137ZM55.7471 62.4733C54.642 62.3962 53.5229 62.2702 52.3709 62.1131L52.3084 62.5717C53.467 62.7297 54.5967 62.857 55.7149 62.935L55.7471 62.4733ZM55.9624 70.196V62.7041H55.4996V70.196H55.9624ZM48.5913 72.3015C51.13 72.3015 53.5786 71.6665 55.844 70.3979L55.6179 69.9941C53.4211 71.2243 51.0504 71.8387 48.5913 71.8387V72.3015ZM41.6984 70.3994C43.8714 71.5765 46.2264 72.2107 48.5824 72.3014L48.6002 71.8389C46.3154 71.751 44.0297 71.1359 41.9189 69.9925L41.6984 70.3994ZM41.5773 64.6751V70.196H42.0401V64.6751H41.5773ZM38.9529 65.1619C39.5349 65.1619 40.1092 65.129 40.673 65.0689L40.6239 64.6087C40.0754 64.6672 39.5175 64.699 38.9529 64.699V65.1619ZM38.7744 65.1619H38.9529V64.699H38.7744V65.1619ZM26.9395 61.4765C30.806 65.1697 36.2485 65.1619 38.7744 65.1619V64.699C36.2297 64.699 30.9751 64.6912 27.2591 61.1418L26.9395 61.4765ZM16.8591 55.9533C17.0522 57.16 18.023 58.2225 19.7008 59.1412C21.3841 60.063 23.8243 60.8662 27.0523 61.5357L27.1463 61.0825C23.9377 60.417 21.5484 59.6253 19.923 58.7353C18.2922 57.8423 17.4754 56.8761 17.3161 55.8801L16.8591 55.9533ZM17.666 53.1708C17.1862 54.1249 16.7669 54.9453 16.8571 55.9377L17.3181 55.8958C17.2419 55.0576 17.5871 54.3577 18.0794 53.3787L17.666 53.1708ZM17.7731 52.9573C17.737 53.0296 17.7013 53.1006 17.666 53.1708L18.0794 53.3787C18.1147 53.3086 18.1507 53.2371 18.187 53.1643L17.7731 52.9573ZM19.6297 48.5424C19.1021 50.6529 18.4008 51.8803 17.7802 52.9442L18.1799 53.1774C18.8087 52.0995 19.5354 50.8279 20.0787 48.6547L19.6297 48.5424ZM20.3285 44.563C20.1513 46.2901 19.8903 47.5866 19.631 48.5377L20.0775 48.6594C20.3442 47.6814 20.6094 46.3598 20.7889 44.6102L20.3285 44.563ZM19.7121 41.7266C19.7121 42.7789 19.9395 43.7797 20.3479 44.682L20.7695 44.4912C20.3877 43.6475 20.1749 42.7116 20.1749 41.7266H19.7121ZM24.0065 35.1442C21.4807 36.2609 19.7121 38.791 19.7121 41.7266H20.1749C20.1749 38.9814 21.8287 36.613 24.1936 35.5675L24.0065 35.1442ZM23.8118 35.5248C23.8836 35.5435 23.9632 35.5625 24.0498 35.5818L24.1503 35.13C24.0678 35.1116 23.9938 35.0939 23.9286 35.0769L23.8118 35.5248ZM23.1001 35.3469L23.8141 35.5254L23.9263 35.0764L23.2124 34.8979L23.1001 35.3469ZM25.8303 30.0562L22.9561 35.0062L23.3564 35.2386L26.2305 30.2886L25.8303 30.0562ZM13.9681 26.3237C17.9922 27.9166 22.0165 29.2737 25.9672 30.395L26.0936 29.9498C22.1577 28.8327 18.1481 27.4806 14.1384 25.8934L13.9681 26.3237ZM14.2858 24.9486L13.8396 26.0196L14.2668 26.1976L14.7131 25.1266L14.2858 24.9486ZM26.7011 28.9206C22.6912 27.7622 18.6819 26.4257 14.5838 24.8221L14.4151 25.2531C18.5276 26.8623 22.5504 28.2033 26.5726 29.3652L26.7011 28.9206ZM35.7147 18.5C30.4781 21.4795 27.685 26.2598 26.426 29.0477L26.8478 29.2382C28.0876 26.4928 30.8278 21.813 35.9436 18.9023L35.7147 18.5ZM51.4846 15.7954C45.9926 14.8951 40.1357 15.8835 35.7113 18.502L35.947 18.9003C40.2687 16.3426 46.0138 15.3676 51.4097 16.2522L51.4846 15.7954ZM64.2312 23.6724C61.8683 19.5828 57.2474 16.6959 51.4829 15.7952L51.4115 16.2524C57.0704 17.1366 61.5526 19.9614 63.8305 23.9039L64.2312 23.6724ZM65.8117 34.6096C66.3226 31.7309 66.4507 27.49 64.2309 23.6719L63.8308 23.9045C65.9721 27.5876 65.858 31.7004 65.356 34.5287L65.8117 34.6096ZM65.8335 34.3563L65.6016 34.3384L65.5661 34.7999L65.798 34.8177L65.8335 34.3563ZM67.3688 42.7103C66.4012 40.3354 65.9586 37.6017 66.0471 34.5938L65.5845 34.5802C65.4944 37.641 65.9443 40.4405 66.9402 42.8849L67.3688 42.7103ZM70.1198 47.1139C69.1582 45.8907 68.1387 44.5922 67.3686 42.71L66.9403 42.8852C67.7373 44.8333 68.7942 46.1765 69.756 47.3999L70.1198 47.1139ZM70.1923 47.2061L70.1198 47.1139L69.7559 47.3999L69.8284 47.4921L70.1923 47.2061ZM73.0921 52.7429C72.5447 50.2797 71.4454 48.8173 70.193 47.207L69.8277 47.4912C71.0742 49.0938 72.1167 50.4873 72.6403 52.8433L73.0921 52.7429ZM73.0976 52.9716V52.7931H72.6348V52.9716H73.0976ZM71.9909 58.6284C73.093 56.8833 73.4615 54.8603 73.0935 52.9283L72.6389 53.0149C72.9848 54.8312 72.6393 56.735 71.5996 58.3813L71.9909 58.6284ZM66.8466 62.1223C68.9545 61.6641 70.7935 60.4706 71.9893 58.6309L71.6012 58.3787C70.4766 60.1089 68.7458 61.2358 66.7483 61.67L66.8466 62.1223ZM58.8546 62.9308C61.3704 62.9308 63.973 62.6612 66.8401 62.1236L66.7548 61.6687C63.9103 62.2021 61.3366 62.468 58.8546 62.468V62.9308ZM58.0514 63.02C58.3269 63.02 58.5271 63.0198 58.9107 62.9239L58.7985 62.4749C58.4682 62.5574 58.3114 62.5572 58.0514 62.5572V63.02ZM58.0514 63.02H58.0514V62.5572H58.0514V63.02ZM56.8826 62.9979C57.2725 63.0124 57.6619 63.02 58.0514 63.02V62.5572C57.668 62.5572 57.2843 62.5497 56.8998 62.5354L56.8826 62.9979ZM57.1226 65.3419V62.7666H56.6598V65.3419H57.1226ZM68.1642 66.4856L56.9192 65.1122L56.8631 65.5716L68.1081 66.945L68.1642 66.4856ZM68.1864 67.9107L68.3649 66.7505L67.9074 66.6802L67.7289 67.8404L68.1864 67.9107ZM56.8631 66.7536L67.9296 68.1052L67.9857 67.6458L56.9192 66.2942L56.8631 66.7536ZM57.1226 70.9099V66.5239H56.6598V70.9099H57.1226ZM56.7518 71.281L57.0195 71.1025L56.7628 70.7174L56.4951 70.8959L56.7518 71.281ZM48.7698 73.4617C51.5771 73.4617 54.2953 72.737 56.7414 71.2875L56.5055 70.8894C54.1323 72.2957 51.4958 72.9989 48.7698 72.9989V73.4617ZM48.5913 73.4617H48.7698V72.9989H48.5913V73.4617ZM40.8038 71.2907C43.2403 72.6443 45.8668 73.4617 48.5913 73.4617V72.9989C45.9611 72.9989 43.4114 72.2099 41.0286 70.8861L40.8038 71.2907ZM40.5201 71.1025L40.7878 71.281L41.0446 70.8959L40.7768 70.7174L40.5201 71.1025ZM40.4171 66.8046V70.9099H40.8799V66.8046H40.4171ZM40.6485 66.5732H35.9184V67.036H40.6485V66.5732ZM35.9184 66.5732C33.8821 66.5732 31.8483 67.5895 30.6438 69.2573L31.019 69.5282C32.1349 67.9832 34.0279 67.036 35.9184 67.036V66.5732ZM30.9556 69.1975L29.9739 68.5728L29.7255 68.9633L30.7072 69.588L30.9556 69.1975ZM30.0369 68.9041C31.4224 66.9991 33.5847 65.8758 35.9184 65.8758V65.413C33.4329 65.413 31.1329 66.6102 29.6626 68.6319L30.0369 68.9041ZM35.9184 65.8758H40.6485V65.413H35.9184V65.8758ZM40.4171 64.8388V65.6444H40.8799V64.8388H40.4171ZM25.5575 59.8905L25.6017 59.9512L25.9757 59.6785L25.9315 59.6179L25.5575 59.8905ZM23.7796 48.0001C23.3489 49.7902 22.2936 55.3528 25.5566 59.8893L25.9324 59.6191C22.7981 55.2617 23.8022 49.8844 24.2296 48.1084L23.7796 48.0001ZM21.3663 46.3103C22.0524 47.1378 22.92 47.8098 23.9078 48.2645L24.1013 47.8441C23.1773 47.4187 22.365 46.7898 21.7226 46.0149L21.3663 46.3103ZM21.2389 49.0117C21.4278 48.2563 21.6161 47.3273 21.7736 46.1945L21.3153 46.1308C21.1599 47.2478 20.9746 48.1606 20.7899 48.8994L21.2389 49.0117ZM19.3151 53.5955C19.8514 52.6139 20.6286 51.1918 21.2372 49.0179L20.7916 48.8931C20.1975 51.015 19.441 52.3999 18.909 53.3736L19.3151 53.5955ZM19.2541 53.7072L19.3152 53.5954L18.909 53.3736L18.8479 53.4854L19.2541 53.7072ZM18.4769 55.7055C18.4403 55.4497 18.4925 55.1816 18.6285 54.8572C18.766 54.5294 18.98 54.1645 19.2494 53.7154L18.8526 53.4773C18.5866 53.9206 18.3543 54.3143 18.2017 54.6782C18.0477 55.0454 17.966 55.402 18.0187 55.7709L18.4769 55.7055ZM25.8427 59.5899C22.8841 58.8797 21.0675 58.1337 19.9757 57.4449C18.8841 56.7562 18.5442 56.1431 18.4765 55.703L18.0191 55.7734C18.1149 56.3965 18.5757 57.1089 19.7287 57.8363C20.8816 58.5637 22.7536 59.3244 25.7347 60.0399L25.8427 59.5899ZM34.0762 41.1735C33.9226 39.1654 32.9406 37.3856 31.4735 36.1759L31.1791 36.533C32.553 37.666 33.4711 39.3313 33.6147 41.2088L34.0762 41.1735ZM34.0647 40.9597H33.8454V41.4225H34.0647V40.9597ZM35.8724 36.6935C34.7207 37.8679 33.9669 39.4352 33.8339 41.1735L34.2954 41.2088C34.4197 39.5835 35.1244 38.1172 36.2029 37.0175L35.8724 36.6935ZM31.3002 36.5844C33.0639 36.7841 34.777 36.9631 36.0148 37.0858L36.0605 36.6252C34.8246 36.5027 33.1136 36.324 31.3523 36.1245L31.3002 36.5844ZM43.2721 32.4841C38.1028 31.682 32.8466 30.6128 27.7704 29.1879L27.6453 29.6335C32.743 31.0644 38.0178 32.1371 43.2011 32.9414L43.2721 32.4841ZM64.4741 33.9093C57.4351 33.9984 50.219 33.5529 43.2718 32.484L43.2014 32.9415C50.1764 34.0146 57.4182 34.4615 64.48 34.3721L64.4741 33.9093ZM62.8479 24.5271C64.6856 27.7651 64.6904 31.4528 64.2488 34.1026L64.7053 34.1787C65.1561 31.4738 65.1609 27.6649 63.2504 24.2987L62.8479 24.5271ZM51.3193 17.5014C56.5378 18.3859 60.7514 20.9457 62.8494 24.5298L63.2488 24.296C61.0631 20.562 56.7091 17.9455 51.3966 17.0451L51.3193 17.5014ZM36.4781 19.8846C40.7123 17.5028 46.1021 16.6171 51.3193 17.5014L51.3966 17.0451C46.0828 16.1444 40.5846 17.0437 36.2512 19.4812L36.4781 19.8846ZM27.9175 29.5085C29.1581 26.8501 31.7196 22.5282 36.477 19.8852L36.2523 19.4806C31.3712 22.1923 28.7564 26.6165 27.4981 29.3128L27.9175 29.5085ZM21.3351 41.8158C21.3351 38.7308 23.8196 36.2463 26.9047 36.2463V35.7835C23.564 35.7835 20.8723 38.4752 20.8723 41.8158H21.3351ZM21.5145 43.2288C21.3974 42.7781 21.3351 42.3047 21.3351 41.8158H20.8723C20.8723 42.3442 20.9397 42.8567 21.0665 43.3451L21.5145 43.2288ZM24.1426 40.2015C22.5273 40.4323 21.2968 41.6791 21.0616 43.2527L21.5194 43.3211C21.7245 41.9486 22.7965 40.8613 24.2081 40.6597L24.1426 40.2015ZM27.8045 42.2029C27.1836 40.892 25.7354 39.9937 24.1454 40.2011L24.2053 40.6601C25.5836 40.4803 26.8457 41.2598 27.3862 42.401L27.8045 42.2029ZM27.2082 42.5333H27.5954V42.0705H27.2082V42.5333ZM26.4703 43.5024C26.4181 43.0334 26.7298 42.5823 27.2312 42.5322L27.1852 42.0717C26.396 42.1506 25.9333 42.8611 26.0103 43.5535L26.4703 43.5024ZM27.4408 44.2659C26.9717 44.318 26.5207 44.0063 26.4705 43.5049L26.01 43.551C26.0889 44.3402 26.7994 44.8028 27.4919 44.7259L27.4408 44.2659ZM27.8535 44.2C27.7302 44.2 27.5475 44.1966 27.3628 44.2889L27.5698 44.7029C27.6432 44.6661 27.7186 44.6628 27.8535 44.6628V44.2ZM25.0442 47.3065C26.6289 47.0998 27.8043 45.9264 28.0808 44.4747L27.6262 44.3881C27.3865 45.6465 26.3678 46.6671 24.9843 46.8476L25.0442 47.3065ZM24.4741 47.3238C24.6591 47.3322 24.8475 47.3269 25.038 47.3072L24.9904 46.8469C24.8225 46.8642 24.6571 46.8688 24.495 46.8615L24.4741 47.3238ZM26.9047 47.3854C26.0737 47.3854 25.287 47.2053 24.5808 46.8822L24.3883 47.3031C25.1539 47.6534 26.0062 47.8482 26.9047 47.8482V47.3854ZM32.4742 41.8158C32.4742 44.9009 29.9897 47.3854 26.9047 47.3854V47.8482C30.2453 47.8482 32.9371 45.1565 32.9371 41.8158H32.4742ZM26.9047 36.2463C29.9028 36.2463 32.4742 38.7331 32.4742 41.8158H32.9371C32.9371 38.4729 30.1538 35.7835 26.9047 35.7835V36.2463ZM35.4359 41.8158C35.4359 38.7308 37.9204 36.2463 41.0054 36.2463V35.7835C37.6648 35.7835 34.9731 38.4752 34.9731 41.8158H35.4359ZM35.6343 43.3004C35.505 42.8284 35.4359 42.3307 35.4359 41.8158H34.9731C34.9731 42.3723 35.0478 42.9111 35.188 43.4227L35.6343 43.3004ZM38.3145 40.2015C36.6524 40.4356 35.3897 41.719 35.1817 43.332L35.6407 43.3912C35.8217 41.9877 36.9204 40.8653 38.3791 40.6597L38.3145 40.2015ZM42.0233 42.2017C41.3933 40.8902 39.9259 39.9942 38.3173 40.2011L38.3764 40.6601C39.7775 40.4799 41.0583 41.2616 41.6061 42.4021L42.0233 42.2017ZM41.4221 42.5333H41.8147V42.0705H41.4221V42.5333ZM40.6706 43.5021C40.6181 43.0363 40.9318 42.5828 41.4448 42.5322L41.3994 42.0716C40.6037 42.1501 40.1323 42.8581 40.2107 43.5539L40.6706 43.5021ZM41.6586 44.2659C41.1782 44.3185 40.7214 44.0035 40.6708 43.5046L40.2104 43.5513C40.2907 44.343 41.0117 44.8023 41.709 44.7259L41.6586 44.2659ZM42.0764 44.2C41.9514 44.2 41.7674 44.1966 41.5815 44.2883L41.7861 44.7034C41.8619 44.6661 41.9397 44.6628 42.0764 44.6628V44.2ZM39.227 47.3065C40.8306 47.1002 42.0229 45.9287 42.3036 44.4752L41.8492 44.3875C41.6065 45.6443 40.574 46.6666 39.1679 46.8475L39.227 47.3065ZM38.559 47.3187C38.7754 47.3335 38.9966 47.3301 39.2209 47.3072L39.1739 46.8468C38.9757 46.867 38.7807 46.87 38.5906 46.857L38.559 47.3187ZM41.0054 47.3854C40.1705 47.3854 39.3803 47.2036 38.6715 46.8776L38.4781 47.2981C39.2466 47.6515 40.1027 47.8482 41.0054 47.8482V47.3854ZM46.575 41.8158C46.575 44.9009 44.0905 47.3854 41.0054 47.3854V47.8482C44.3461 47.8482 47.0378 45.1565 47.0378 41.8158H46.575ZM41.0054 36.2463C44.0905 36.2463 46.575 38.7308 46.575 41.8158H47.0378C47.0378 38.4752 44.3461 35.7835 41.0054 35.7835V36.2463ZM34.669 58.9873C32.5178 58.9873 30.4491 57.8682 29.2418 55.9709L28.8513 56.2194C30.1428 58.2489 32.358 59.4502 34.669 59.4502V58.9873ZM34.9034 58.9656C34.8266 58.9768 34.7525 58.9873 34.669 58.9873V59.4502C34.7901 59.4502 34.8945 59.4346 34.9702 59.4236L34.9034 58.9656ZM35.3681 59.0551C35.2831 58.97 35.1798 58.9503 35.1034 58.9479C35.0339 58.9458 34.9581 58.9576 34.9034 58.9656L34.9702 59.4236C35.002 59.4189 35.0263 59.4154 35.0479 59.4131C35.0694 59.4107 35.0819 59.4103 35.089 59.4105C35.0959 59.4108 35.0915 59.4115 35.081 59.4078C35.0686 59.4036 35.0538 59.3953 35.0409 59.3824L35.3681 59.0551ZM40.0097 56.056C39.3177 57.0941 37.765 58.7301 35.1815 58.9885L35.2275 59.449C37.9987 59.1719 39.6589 57.4166 40.3948 56.3127L40.0097 56.056ZM39.0845 55.6576L40.0662 56.3715L40.3384 55.9972L39.3567 55.2833L39.0845 55.6576ZM35.1345 58.1999C37.38 58.0128 38.772 56.424 39.4032 55.6125L39.0379 55.3283C38.4196 56.1232 37.1343 57.5688 35.096 57.7387L35.1345 58.1999ZM29.8342 55.5965C31.0373 57.4474 33.0841 58.4798 35.1465 58.1986L35.084 57.74C33.2196 57.9942 31.3396 57.0633 30.2223 55.3443L29.8342 55.5965ZM29.1708 56.2904L30.1525 55.6656L29.904 55.2752L28.9223 55.8999L29.1708 56.2904ZM43.4515 52.2576C43.4515 52.9184 42.9158 53.4541 42.2549 53.4541V53.917C43.1714 53.917 43.9143 53.174 43.9143 52.2576H43.4515ZM42.2549 51.0611C42.9158 51.0611 43.4515 51.5968 43.4515 52.2576H43.9143C43.9143 51.3412 43.1714 50.5983 42.2549 50.5983V51.0611ZM41.0584 52.2576C41.0584 51.5968 41.5941 51.0611 42.2549 51.0611V50.5983C41.3385 50.5983 40.5956 51.3412 40.5956 52.2576H41.0584ZM42.2549 53.4541C41.5941 53.4541 41.0584 52.9184 41.0584 52.2576H40.5956C40.5956 53.174 41.3385 53.917 42.2549 53.917V53.4541Z" fill="#1D1D1D"/>
</svg>
