<svg width="217" height="77" viewBox="0 0 217 77" fill="none" xmlns="http://www.w3.org/2000/svg">
<rect width="217" height="77" rx="38.5" fill="#A3E4EA"/>
<path d="M42.0181 59.764C39.1998 59.764 36.721 59.1698 34.5818 57.9813C32.4766 56.7589 30.8467 55.0442 29.6922 52.8371C28.5377 50.63 27.9605 48.0663 27.9605 45.1461V24.3653H32.7482V44.7896C32.7482 48.1512 33.5631 50.7828 35.193 52.6843C36.8229 54.5518 39.0979 55.4856 42.0181 55.4856C44.9383 55.4856 47.2133 54.5518 48.8431 52.6843C50.473 50.7828 51.2879 48.1512 51.2879 44.7896V24.3653H56.0247V45.1461C56.0247 48.0663 55.4475 50.63 54.293 52.8371C53.1385 55.0442 51.5087 56.7589 49.4034 57.9813C47.2982 59.1698 44.8364 59.764 42.0181 59.764ZM64.5406 24.3653H69.3283V59H64.5406V24.3653ZM113.347 23.8051L90.121 67.6587L85.1296 65.0611L108.355 21.2075L113.347 23.8051ZM141.497 59.764C138.679 59.764 136.2 59.1698 134.061 57.9813C131.956 56.7589 130.326 55.0442 129.171 52.8371C128.017 50.63 127.44 48.0663 127.44 45.1461V24.3653H132.227V44.7896C132.227 48.1512 133.042 50.7828 134.672 52.6843C136.302 54.5518 138.577 55.4856 141.497 55.4856C144.417 55.4856 146.692 54.5518 148.322 52.6843C149.952 50.7828 150.767 48.1512 150.767 44.7896V24.3653H155.504V45.1461C155.504 48.0663 154.927 50.63 153.772 52.8371C152.618 55.0442 150.988 56.7589 148.883 57.9813C146.777 59.1698 144.316 59.764 141.497 59.764ZM178.841 42.0901L191.014 59H185.412L175.734 45.4517L166.108 59H160.607L173.035 41.7336L160.607 24.3653H166.108L176.193 38.4229L186.074 24.3653H191.524L178.841 42.0901Z" fill="#1D1D1D"/>
</svg>
